<svg xmlns="http://www.w3.org/2000/svg" xmlns:xlink="http://www.w3.org/1999/xlink" width="2255" viewBox="0 0 2255 1597" height="1597" xmlns:ev="http://www.w3.org/2001/xml-events"><style type="text/css"><![CDATA[
.st3 {fill:#303030;font-family:Arial;font-size:10pt;font-weight:bold}
.st2 {fill:#303030;font-family:Arial;font-size:10pt}
.st1 {fill:#ffffff;font-family:Arial;font-size:10pt}
]]></style><defs/><g transform="translate(5,5)" id="page1"><rect y="0" width="2245" stroke="#808080" height="1587" fill="#ffffff" x="0"/><g transform="translate(103,1283.7)" id="table1"><g><path stroke="#838383" fill="#969696" d="M0,0L114,0L114,30L0,30L0,0z" stroke-width="2.66667"/><text class="st1"><tspan y="19.7" x="26.3">Pengawas</tspan></text></g><g><path stroke="#838383" fill="#ffffff" d="M0,30L114,30L114,85.8L0,85.8L0,30z" stroke-width="2.66667"/><text class="st2"><tspan y="38.6" x="52.3">id</tspan><tspan y="54.6" x="41">nama</tspan><tspan y="70.6" x="28.3">username</tspan><tspan y="86.6" x="28.3">password</tspan></text></g></g><g transform="translate(103,1103.25)" id="table2"><g><path stroke="#838383" fill="#969696" d="M0,0L114,0L114,35.5L0,35.5L0,0z" stroke-width="2.66667"/><text class="st1"><tspan y="22.4" x="34.3">TPMPS</tspan></text></g><g><path stroke="#838383" fill="#ffffff" d="M0,35.5L114,35.5L114,143.5L0,143.5L0,35.5z" stroke-width="2.66667"/><text class="st2"><tspan y="62.2" x="52.3">id</tspan><tspan y="78.2" x="41">nama</tspan><tspan y="94.2" x="28.3">username</tspan><tspan y="110.2" x="28.3">password</tspan><tspan y="126.2" x="26.3">sekolah_id</tspan></text></g></g><g transform="translate(528,637.79)" id="table3"><g><path stroke="#838383" fill="#969696" d="M0,0L114,0L114,39.4L0,39.4L0,0z" stroke-width="2.66667"/><text class="st1"><tspan y="24.4" x="33.7">Sekolah</tspan></text></g><g><path stroke="#838383" fill="#ffffff" d="M0,39.4L114,39.4L114,138.3L0,138.3L0,39.4z" stroke-width="2.66667"/><text class="st2"><tspan y="61.5" x="52.3">id</tspan><tspan y="77.5" x="41">nama</tspan><tspan y="93.5" x="37.7">alamat</tspan><tspan y="109.5" x="37.7">telefon</tspan><tspan y="125.5" x="25">kab_kot_id</tspan></text></g></g><g transform="translate(528,706.96)" id="shape4"><path stroke="#6d6d6d" d="M0,0L-123,0L-123,468.1L-311,468.1" fill="none" stroke-width="2.66667"/><rect y="-8" width="7.5" height="16" fill="#ffffff" x="-21.5"/><text class="st2"><tspan y="4.7" x="-21.7">1</tspan></text><rect y="460.1" width="7.5" height="16" fill="#ffffff" x="-292.5"/><text class="st2"><tspan y="472.7" x="-292.7">1</tspan></text></g><g transform="translate(458,1253.98)" id="table5"><g><path stroke="#838383" fill="#969696" d="M0,0L114,0L114,43.3L0,43.3L0,0z" stroke-width="2.66667"/><text class="st1"><tspan y="18.3" x="29.7">Sekolah - </tspan><tspan y="34.3" x="26.3">Pengawas</tspan></text></g><g><path stroke="#838383" fill="#ffffff" d="M0,43.3L114,43.3L114,150.7L0,150.7L0,43.3z" stroke-width="2.66667"/><text class="st2"><tspan y="61.7" x="52.3">id</tspan><tspan y="77.7" x="41.7">tahun</tspan><tspan y="93.7" x="39.7">tgl_sk</tspan><tspan y="109.7" x="28.3">nomor_sk</tspan><tspan y="125.7" x="26.3">sekolah_id</tspan><tspan y="141.7" x="18.3">pengawas_id</tspan></text></g></g><g transform="translate(585,776.12)" id="shape6"><path stroke="#6d6d6d" d="M0,0L0,445.9L-70,445.9L-70,477.9" fill="none" stroke-width="2.66667"/><rect y="12" width="7.5" height="16" fill="#ffffff" x="-1.5"/><text class="st2"><tspan y="24.7" x="-1.7">1</tspan></text><rect y="449.9" width="8.9" height="16" fill="#ffffff" x="-72.2"/><text class="st2"><tspan y="462.5" x="-72.3">N</tspan></text></g><g transform="translate(217,1326.6)" id="shape7"><path stroke="#6d6d6d" d="M0,0L209,0L209,-5.1L241,-5.1" fill="none" stroke-width="2.66667"/><rect y="-8" width="7.5" height="16" fill="#ffffff" x="18.5"/><text class="st2"><tspan y="4.7" x="18.3">1</tspan></text><rect y="-13.1" width="8.9" height="16" fill="#ffffff" x="218.8"/><text class="st2"><tspan y="-0.4" x="218.7">N</tspan></text></g><g transform="translate(1582,962.46)" id="table8"><g><path stroke="#838383" fill="#969696" d="M0,0L114,0L114,30L0,30L0,0z" stroke-width="2.66667"/><text class="st1"><tspan y="19.7" x="34.3">Standar</tspan></text></g><g><path stroke="#838383" fill="#ffffff" d="M0,30L114,30L114,105.3L0,105.3L0,30z" stroke-width="2.66667"/><text class="st2"><tspan y="40.3" x="52.3">id</tspan><tspan y="56.3" x="41.7">tahun</tspan><tspan y="72.3" x="39">nomor</tspan><tspan y="88.3" x="41">nama</tspan><tspan y="104.3" x="39.7">status</tspan></text></g></g><g transform="translate(1332,962.46)" id="table9"><g><path stroke="#838383" fill="#969696" d="M0,0L114,0L114,27.3L0,27.3L0,0z" stroke-width="2.66667"/><text class="st1"><tspan y="18.3" x="31.7">Indikator</tspan></text></g><g><path stroke="#838383" fill="#ffffff" d="M0,27.3L114,27.3L114,134.7L0,134.7L0,27.3z" stroke-width="2.66667"/><text class="st2"><tspan y="45.7" x="52.3">id</tspan><tspan y="61.7" x="41.7">tahun</tspan><tspan y="77.7" x="39">nomor</tspan><tspan y="93.7" x="41">nama</tspan><tspan y="109.7" x="39.7">status</tspan><tspan y="125.7" x="26.3">standar_id</tspan></text></g></g><g transform="translate(1031.5,1174.84)" id="table10"><g><path stroke="#838383" fill="#969696" d="M0,0L114,0L114,30L0,30L0,0z" stroke-width="2.66667"/><text class="st1"><tspan y="19.7" x="18.3">Sub Indikator</tspan></text></g><g><path stroke="#838383" fill="#ffffff" d="M0,30L114,30L114,121.3L0,121.3L0,30z" stroke-width="2.66667"/><text class="st2"><tspan y="40.3" x="52.3">id</tspan><tspan y="56.3" x="41.7">tahun</tspan><tspan y="72.3" x="39">nomor</tspan><tspan y="88.3" x="41">nama</tspan><tspan y="104.3" x="39.7">status</tspan><tspan y="120.3" x="23.7">indikator_id</tspan></text></g></g><g transform="translate(1582,1005.35)" id="shape11"><path stroke="#6d6d6d" d="M0,0L-104,0L-104,24.4L-136,24.4" fill="none" stroke-width="2.66667"/><rect y="-8" width="7.5" height="16" fill="#ffffff" x="-21.5"/><text class="st2"><tspan y="4.7" x="-21.7">1</tspan></text><rect y="16.4" width="8.9" height="16" fill="#ffffff" x="-118.2"/><text class="st2"><tspan y="29.1" x="-118.3">N</tspan></text></g><g transform="translate(1389,1097.12)" id="shape12"><path stroke="#6d6d6d" d="M0,0L0,120.6L-243.5,120.6" fill="none" stroke-width="2.66667"/><rect y="12" width="7.5" height="16" fill="#ffffff" x="-1.5"/><text class="st2"><tspan y="24.7" x="-1.7">1</tspan></text><rect y="112.6" width="8.9" height="16" fill="#ffffff" x="-225.7"/><text class="st2"><tspan y="125.3" x="-225.8">N</tspan></text></g><g transform="translate(762.5,1346.84)" id="table13"><g><path stroke="#838383" fill="#969696" d="M0,0L133,0L133,30L0,30L0,0z" stroke-width="2.66667"/><text class="st1"><tspan y="19.7" x="23">raport_sekolah</tspan></text></g><g><path stroke="#838383" fill="#ffffff" d="M0,30L133,30L133,121.3L0,121.3L0,30z" stroke-width="2.66667"/><text class="st2"><tspan y="42" x="61.7">id</tspan><tspan y="58" x="51">tahun</tspan><tspan y="74" x="55.7">nilai</tspan><tspan y="90" x="35.7">sekolah_id</tspan><tspan y="106" x="19">sub_indikator_id</tspan></text></g></g><g transform="translate(613.5,776.12)" id="shape14"><path stroke="#6d6d6d" d="M0,0L0,631.4L149,631.4" fill="none" stroke-width="2.66667"/><rect y="12" width="7.5" height="16" fill="#ffffff" x="-1.5"/><text class="st2"><tspan y="24.7" x="-1.7">1</tspan></text><rect y="623.4" width="8.9" height="16" fill="#ffffff" x="126.8"/><text class="st2"><tspan y="636.1" x="126.7">N</tspan></text></g><g transform="translate(1031.5,1196.29)" id="shape15"><path stroke="#6d6d6d" d="M0,0L-104,0L-104,211.2L-136,211.2" fill="none" stroke-width="2.66667"/><rect y="-8" width="7.5" height="16" fill="#ffffff" x="-21.5"/><text class="st2"><tspan y="4.7" x="-21.7">1</tspan></text><rect y="203.2" width="8.9" height="16" fill="#ffffff" x="-118.2"/><text class="st2"><tspan y="215.9" x="-118.3">N</tspan></text></g><g transform="translate(736,787.9)" id="table16"><g><path stroke="#838383" fill="#969696" d="M0,0L114,0L114,30L0,30L0,0z" stroke-width="2.66667"/><text class="st1"><tspan y="19.7" x="31.7">Kab_Kot</tspan></text></g><g><path stroke="#838383" fill="#ffffff" d="M0,30L114,30L114,85.8L0,85.8L0,30z" stroke-width="2.66667"/><text class="st2"><tspan y="54.6" x="52.3">id</tspan><tspan y="70.6" x="41">nama</tspan></text></g></g><g transform="translate(736,865.37)" id="shape17"><path stroke="#6d6d6d" d="M0,0L0,-4L-42,-4L-42,-123.8L-94,-123.8" fill="none" stroke-width="2.66667"/><rect y="-12" width="7.5" height="16" fill="#ffffff" x="-17.5"/><text class="st2"><tspan y="0.7" x="-17.7">1</tspan></text><rect y="-131.8" width="8.9" height="16" fill="#ffffff" x="-76.2"/><text class="st2"><tspan y="-119.2" x="-76.3">N</tspan></text></g><g transform="translate(916,931.33)" id="table18"><g><path stroke="#838383" fill="#969696" d="M0,0L138,0L138,30L0,30L0,0z" stroke-width="2.66667"/><text class="st1"><tspan y="19.7" x="37">KPI_raport</tspan></text></g><g><path stroke="#838383" fill="#ffffff" d="M0,30L138,30L138,121.3L0,121.3L0,30z" stroke-width="2.66667"/><text class="st2"><tspan y="42" x="64.3">id</tspan><tspan y="58" x="53.7">tahun</tspan><tspan y="74" x="46.3">nilai_kpi</tspan><tspan y="90" x="33.7">kab_kota_id</tspan><tspan y="106" x="21.7">sub_indikator_id</tspan></text></g></g><g transform="translate(850,830.79)" id="shape19"><path stroke="#6d6d6d" d="M0,0L34,0L34,153.2L66,153.2" fill="none" stroke-width="2.66667"/><rect y="-8" width="7.5" height="16" fill="#ffffff" x="18.5"/><text class="st2"><tspan y="4.7" x="18.3">1</tspan></text><rect y="145.2" width="8.9" height="16" fill="#ffffff" x="43.8"/><text class="st2"><tspan y="157.9" x="43.7">N</tspan></text></g><g transform="translate(1088.5,1174.84)" id="shape20"><path stroke="#6d6d6d" d="M0,0L0,-190.8L-34.5,-190.8" fill="none" stroke-width="2.66667"/><rect y="-28" width="7.5" height="16" fill="#ffffff" x="-1.5"/><text class="st2"><tspan y="-15.3" x="-1.7">1</tspan></text><rect y="-198.8" width="8.9" height="16" fill="#ffffff" x="-16.7"/><text class="st2"><tspan y="-186.2" x="-16.8">N</tspan></text></g><g transform="translate(916,575.79)" id="table21"><g><path stroke="#838383" fill="#969696" d="M0,0L114,0L114,34.5L0,34.5L0,0z" stroke-width="2.66667"/><text class="st1"><tspan y="21.9" x="32.3">Masalah</tspan></text></g><g><path stroke="#838383" fill="#ffffff" d="M0,34.5L114,34.5L114,157.8L0,157.8L0,34.5z" stroke-width="2.66667"/><text class="st2"><tspan y="52.8" x="52.3">id</tspan><tspan y="68.8" x="41.7">tahun</tspan><tspan y="84.8" x="31">deskripsi</tspan><tspan y="100.8" x="39.7">status</tspan><tspan y="116.8" x="31.7">datetime</tspan><tspan y="132.8" x="26.3">sekolah_id</tspan><tspan y="148.8" x="23.7">indikator_id</tspan></text></g></g><g transform="translate(1332,1063.46)" id="shape22"><path stroke="#6d6d6d" d="M0,0L-203,0L-203,-383L-302,-383" fill="none" stroke-width="2.66667"/><rect y="-8" width="7.5" height="16" fill="#ffffff" x="-21.5"/><text class="st2"><tspan y="4.7" x="-21.7">1</tspan></text><rect y="-391" width="8.9" height="16" fill="#ffffff" x="-284.2"/><text class="st2"><tspan y="-378.3" x="-284.3">N</tspan></text></g><g transform="translate(642,706.96)" id="shape23"><path stroke="#6d6d6d" d="M0,0L137,0L137,-26.5L274,-26.5" fill="none" stroke-width="2.66667"/><rect y="-8" width="7.5" height="16" fill="#ffffff" x="18.5"/><text class="st2"><tspan y="4.7" x="18.3">1</tspan></text><rect y="-34.5" width="8.9" height="16" fill="#ffffff" x="251.8"/><text class="st2"><tspan y="-21.8" x="251.7">N</tspan></text></g><g transform="translate(1100,450.12)" id="table24"><g><path stroke="#838383" fill="#969696" d="M0,0L123,0L123,30L0,30L0,0z" stroke-width="2.66667"/><text class="st1"><tspan y="19.7" x="19.7">Akar_masalah</tspan></text></g><g><path stroke="#838383" fill="#ffffff" d="M0,30L123,30L123,153.3L0,153.3L0,30z" stroke-width="2.66667"/><text class="st2"><tspan y="40.3" x="56.3">id</tspan><tspan y="56.3" x="45.7">tahun</tspan><tspan y="72.3" x="35.7">deskripsi</tspan><tspan y="88.3" x="43.7">status</tspan><tspan y="104.3" x="36.3">datetime</tspan><tspan y="120.3" x="30.3">sekolah_id</tspan><tspan y="136.3" x="28.3">indikator_id</tspan></text></g></g><g transform="translate(1332,1029.79)" id="shape25"><path stroke="#6d6d6d" d="M0,0L-170.5,0L-170.5,-442.3" fill="none" stroke-width="2.66667"/><rect y="-8" width="7.5" height="16" fill="#ffffff" x="-21.5"/><text class="st2"><tspan y="4.7" x="-21.7">1</tspan></text><rect y="-430.3" width="8.9" height="16" fill="#ffffff" x="-172.7"/><text class="st2"><tspan y="-417.7" x="-172.8">N</tspan></text></g><g transform="translate(642,672.37)" id="shape26"><path stroke="#6d6d6d" d="M0,0L60.5,0L60.5,-119.2L458,-119.2" fill="none" stroke-width="2.66667"/><rect y="-8" width="7.5" height="16" fill="#ffffff" x="18.5"/><text class="st2"><tspan y="4.7" x="18.3">1</tspan></text><rect y="-127.2" width="8.9" height="16" fill="#ffffff" x="435.8"/><text class="st2"><tspan y="-114.6" x="435.7">N</tspan></text></g><g transform="translate(916,424.19)" id="table27"><g><path stroke="#838383" fill="#969696" d="M0,0L114,0L114,43.3L0,43.3L0,0z" stroke-width="2.66667"/><text class="st1"><tspan y="18.3" x="11">Master_akar_m</tspan><tspan y="34.3" x="38.3">asalah</tspan></text></g><g><path stroke="#838383" fill="#ffffff" d="M0,43.3L114,43.3L114,102.7L0,102.7L0,43.3z" stroke-width="2.66667"/><text class="st2"><tspan y="61.7" x="52.3">id</tspan><tspan y="77.7" x="41.7">tahun</tspan><tspan y="93.7" x="27.7">deskpripsi</tspan></text></g></g><path transform="translate(1030,467.09)" stroke="#6d6d6d" stroke-dasharray="2,5" d="M0,0L38,0L38,51.7L70,51.7" fill="none" id="shape28" stroke-width="2.66667"/><g transform="translate(613.5,637.79)" id="shape29"><path stroke="#6d6d6d" d="M0,0L0,-267.4L621.8,-267.4" fill="none" stroke-width="2.66667"/><rect y="-28" width="7.5" height="16" fill="#ffffff" x="-1.5"/><text class="st2"><tspan y="-15.3" x="-1.7">1</tspan></text><rect y="-275.4" width="8.9" height="16" fill="#ffffff" x="599.5"/><text class="st2"><tspan y="-262.7" x="599.4">N</tspan></text></g><g transform="translate(1332,996.12)" id="shape30"><path stroke="#6d6d6d" d="M0,0L-66,0L-66,-557" fill="none" stroke-width="2.66667"/><rect y="-8" width="7.5" height="16" fill="#ffffff" x="-21.5"/><text class="st2"><tspan y="4.7" x="-21.7">1</tspan></text><rect y="-545" width="8.9" height="16" fill="#ffffff" x="-68.2"/><text class="st2"><tspan y="-532.4" x="-68.3">N</tspan></text></g><g transform="translate(1235.25,301.76)" id="table31"><g><path stroke="#838383" fill="#969696" d="M0,0L123,0L123,30L0,30L0,0z" stroke-width="2.66667"/><text class="st1"><tspan y="19.7" x="21.7">Rekomendasi</tspan></text></g><g><path stroke="#838383" fill="#ffffff" d="M0,30L123,30L123,153.3L0,153.3L0,30z" stroke-width="2.66667"/><text class="st2"><tspan y="40.3" x="56.3">id</tspan><tspan y="56.3" x="45.7">tahun</tspan><tspan y="72.3" x="35.7">deskripsi</tspan><tspan y="88.3" x="43.7">status</tspan><tspan y="104.3" x="36.3">datetime</tspan><tspan y="120.3" x="30.3">sekolah_id</tspan><tspan y="136.3" x="28.3">indikator_id</tspan></text></g></g><g transform="translate(80,315.3)" id="table32"><g><path stroke="#838383" fill="#969696" d="M0,0L114,0L114,30L0,30L0,0z" stroke-width="2.66667"/><text class="st1"><tspan y="19.7" x="22.3">Siklus_Date</tspan></text></g><g><path stroke="#838383" fill="#ffffff" d="M0,30L114,30L114,105.3L0,105.3L0,30z" stroke-width="2.66667"/><text class="st2"><tspan y="48.3" x="52.3">id</tspan><tspan y="64.3" x="40.3">Siklus</tspan><tspan y="80.3" x="17">tanggal_mulai</tspan><tspan y="96.3" x="11.7">tanggal_selesai</tspan></text></g></g><g transform="translate(1633,164.3)" id="table33"><g><path stroke="#838383" fill="#969696" d="M0,0L114,0L114,30L0,30L0,0z" stroke-width="2.66667"/><text class="st1"><tspan y="19.7" x="31.7">Program</tspan></text></g><g><path stroke="#838383" fill="#ffffff" d="M0,30L114,30L114,121.3L0,121.3L0,30z" stroke-width="2.66667"/><text class="st2"><tspan y="40.3" x="52.3">id</tspan><tspan y="56.3" x="41.7">tahun</tspan><tspan y="72.3" x="31">deskripsi</tspan><tspan y="88.3" x="39.7">status</tspan><tspan y="104.3" x="31.7">datetime</tspan><tspan y="120.3" x="26.3">sekolah_id</tspan></text></g></g><g transform="translate(1449,244.3)" id="table34"><g><path stroke="#838383" fill="#969696" d="M0,0L114,0L114,30L0,30L0,0z" stroke-width="2.66667"/><text class="st1"><tspan y="11.7" x="10.3">program_rekom</tspan><tspan y="27.7" x="38.3">endasi</tspan></text></g><g><path stroke="#838383" fill="#ffffff" d="M0,30L114,30L114,89.3L0,89.3L0,30z" stroke-width="2.66667"/><text class="st2"><tspan y="48.3" x="52.3">id</tspan><tspan y="64.3" x="23.7">program_id</tspan><tspan y="80.3" x="11">rekomendasi_id</tspan></text></g></g><g transform="translate(1358.25,370.42)" id="shape35"><path stroke="#6d6d6d" d="M0,0L58.8,0L58.8,-83.2L90.8,-83.2" fill="none" stroke-width="2.66667"/><rect y="-8" width="7.5" height="16" fill="#ffffff" x="18.5"/><text class="st2"><tspan y="4.7" x="18.3">1</tspan></text><rect y="-91.2" width="8.9" height="16" fill="#ffffff" x="68.5"/><text class="st2"><tspan y="-78.6" x="68.4">N</tspan></text></g><g transform="translate(1563,287.19)" id="shape36"><path stroke="#6d6d6d" d="M0,0L38,0L38,-80L70,-80" fill="none" stroke-width="2.66667"/><rect y="-8" width="8.9" height="16" fill="#ffffff" x="17.8"/><text class="st2"><tspan y="4.7" x="17.7">N</tspan></text><rect y="-88" width="7.5" height="16" fill="#ffffff" x="48.5"/><text class="st2"><tspan y="-75.3" x="48.3">1</tspan></text></g><g transform="translate(556.5,637.79)" id="shape37"><path stroke="#6d6d6d" d="M0,0L0,-505.5L1133.5,-505.5L1133.5,-473.5" fill="none" stroke-width="2.66667"/><rect y="-28" width="7.5" height="16" fill="#ffffff" x="-1.5"/><text class="st2"><tspan y="-15.3" x="-1.7">1</tspan></text><rect y="-501.5" width="8.9" height="16" fill="#ffffff" x="1131.3"/><text class="st2"><tspan y="-488.8" x="1131.2">N</tspan></text></g><g transform="translate(1799,276.57)" id="table38"><g><path stroke="#838383" fill="#969696" d="M0,0L114,0L114,38.1L0,38.1L0,0z" stroke-width="2.66667"/><text class="st1"><tspan y="23.7" x="31.7">Kegiatan</tspan></text></g><g><path stroke="#838383" fill="#ffffff" d="M0,38.1L114,38.1L114,129.4L0,129.4L0,38.1z" stroke-width="2.66667"/><text class="st2"><tspan y="56.4" x="52.3">id</tspan><tspan y="72.4" x="31">deskripsi</tspan><tspan y="88.4" x="39.7">status</tspan><tspan y="104.4" x="31.7">datetime</tspan><tspan y="120.4" x="23.7">program_id</tspan></text></g></g><g transform="translate(1747,207.19)" id="shape39"><path stroke="#6d6d6d" d="M0,0L20,0L20,134.1L52,134.1" fill="none" stroke-width="2.66667"/><rect y="-8" width="7.5" height="16" fill="#ffffff" x="18.5"/><text class="st2"><tspan y="4.7" x="18.3">1</tspan></text><rect y="126.1" width="8.9" height="16" fill="#ffffff" x="29.8"/><text class="st2"><tspan y="138.8" x="29.7">N</tspan></text></g><g transform="translate(2017,538.09)" id="table40"><g><path stroke="#838383" fill="#969696" d="M0,0L158.8,0L158.8,34.5L0,34.5L0,0z" stroke-width="2.66667"/><text class="st1"><tspan y="21.9" x="30.3">Rencana_Kinerja</tspan></text></g><g><path stroke="#838383" fill="#ffffff" d="M0,34.5L158.8,34.5L158.8,194.9L0,194.9L0,34.5z" stroke-width="2.66667"/><text class="st2"><tspan y="55.4" x="74.3">id</tspan><tspan y="71.4" x="32.3">indikator_kinerja</tspan><tspan y="87.4" x="59">volume</tspan><tspan y="103.4" x="63.7">biaya</tspan><tspan y="119.4" x="39.7">sumber_daya</tspan><tspan y="135.4" x="39">is_dana_BOS</tspan><tspan y="151.4" x="61.7">status</tspan><tspan y="167.4" x="54.3">datetime</tspan><tspan y="183.4" x="46.3">kegiatan_id</tspan></text></g></g><g transform="translate(1913,341.28)" id="shape41"><path stroke="#6d6d6d" d="M0,0L72,0L72,294.3L104,294.3" fill="none" stroke-width="2.66667"/><rect y="-8" width="7.5" height="16" fill="#ffffff" x="18.5"/><text class="st2"><tspan y="4.7" x="18.3">1</tspan></text><rect y="286.3" width="8.9" height="16" fill="#ffffff" x="81.8"/><text class="st2"><tspan y="298.9" x="81.7">N</tspan></text></g><g transform="translate(2017,776.54)" id="table42"><g><path stroke="#838383" fill="#969696" d="M0,0L158.8,0L158.8,34.5L0,34.5L0,0z" stroke-width="2.66667"/><text class="st1"><tspan y="21.9" x="29.7">Realisasi_Kinerja</tspan></text></g><g><path stroke="#838383" fill="#ffffff" d="M0,34.5L158.8,34.5L158.8,194.9L0,194.9L0,34.5z" stroke-width="2.66667"/><text class="st2"><tspan y="55.4" x="74.3">id</tspan><tspan y="71.4" x="23">penanggung_jawab</tspan><tspan y="87.4" x="11">pemangku_kepentingan</tspan><tspan y="103.4" x="21.7">waktu_pelaksanaan</tspan><tspan y="119.4" x="14.3">bukti_fisik_keterangan</tspan><tspan y="135.4" x="40.3">bukti_fisik_url</tspan><tspan y="151.4" x="61.7">status</tspan><tspan y="167.4" x="54.3">datetime</tspan><tspan y="183.4" x="46.3">kegiatan_id</tspan></text></g></g><g transform="translate(1856,405.98)" id="shape43"><path stroke="#6d6d6d" d="M0,0L0,468L161,468" fill="none" stroke-width="2.66667"/><rect y="12" width="7.5" height="16" fill="#ffffff" x="-1.5"/><text class="st2"><tspan y="24.7" x="-1.7">1</tspan></text><rect y="460" width="8.9" height="16" fill="#ffffff" x="138.8"/><text class="st2"><tspan y="472.7" x="138.7">N</tspan></text></g><g transform="translate(89,576.09)" id="shape44"><path fill-opacity="0.08" fill="#000000" d="M2,2L172,2L172,87L2,87L2,2z"/><path stroke="#6d6d6d" fill="#92d050" d="M0,0L170,0L170,85L0,85L0,0z"/><text class="st3"><tspan y="46.8" x="14.7">DAPODIK API Services</tspan></text></g><g transform="translate(259,619.09)" id="shape45"><path stroke="#6d6d6d" stroke-dasharray="2,5" d="M0,0L237,0L237,53.3L264.6,53.3" fill="none"/><path stroke="#6d6d6d" fill="#6d6d6d" d="M269,53.3L263.8,50.3C264.3,51.2,264.6,52.2,264.6,53.3C264.6,54.4,264.3,55.4,263.8,56.3L269,53.3" stroke-linecap="round" stroke-width="1"/></g><g transform="translate(1422,1455.09)" id="shape46"><path fill-opacity="0.08" fill="#000000" d="M2,2L172,2L172,87L2,87L2,2z"/><path stroke="#6d6d6d" fill="#92d050" d="M0,0L170,0L170,85L0,85L0,0z"/><text class="st3"><tspan y="46.8" x="24.7">Upload CSV / Excel</tspan></text></g><g transform="matrix(0.2,-0.98,0.98,0.2,1563,1455.1)" id="shape47"><path stroke="#6d6d6d" stroke-dasharray="2,5" d="M0,0L381.2,0" fill="none"/><path stroke="#6d6d6d" fill="#6d6d6d" d="M385.6,0L380.4,-3C380.9,-2.1,381.2,-1.1,381.2,0C381.2,1.1,380.9,2.1,380.4,3L385.6,0" stroke-linecap="round" stroke-width="1"/></g><g transform="matrix(-0.24,-0.97,0.97,-0.24,1507,1455.1)" id="shape48"><path stroke="#6d6d6d" stroke-dasharray="2,5" d="M0,0L364.6,0" fill="none"/><path stroke="#6d6d6d" fill="#6d6d6d" d="M369,0L363.8,-3C364.3,-2.1,364.6,-1.1,364.6,0C364.6,1.1,364.3,2.1,363.8,3L369,0" stroke-linecap="round" stroke-width="1"/></g><g transform="matrix(-0.85,-0.52,0.52,-0.85,1440,1455.1)" id="shape49"><path stroke="#6d6d6d" stroke-dasharray="2,5" d="M0,0L339.5,0" fill="none"/><path stroke="#6d6d6d" fill="#6d6d6d" d="M343.9,0L338.7,-3C339.2,-2.1,339.5,-1.1,339.5,0C339.5,1.1,339.2,2.1,338.7,3L343.9,0" stroke-linecap="round" stroke-width="1"/></g><g transform="matrix(-0.99,-0.11,0.11,-0.99,1422,1498.1)" id="shape50"><path stroke="#6d6d6d" stroke-dasharray="2,5" d="M0,0L525.5,0" fill="none"/><path stroke="#6d6d6d" fill="#6d6d6d" d="M529.9,0L524.7,-3C525.3,-2.1,525.5,-1.1,525.5,0C525.5,1.1,525.3,2.1,524.7,3L529.9,0" stroke-linecap="round" stroke-width="1"/></g></g></svg>